<svg width="24" height="24" viewBox="0 0 24 24" fill="none" xmlns="http://www.w3.org/2000/svg">
<g id="house-fill">
<g id="Union">
<path d="M12.7233 2.78383C12.162 2.22245 11.2518 2.22245 10.6904 2.78383L1.13615 12.3381C0.85546 12.6188 0.85546 13.0739 1.13615 13.3546C1.41684 13.6352 1.87193 13.6352 2.15262 13.3546L11.7069 3.80029L21.2611 13.3546C21.5418 13.6352 21.9969 13.6352 22.2776 13.3546C22.5583 13.0739 22.5583 12.6188 22.2776 12.3381L18.8944 8.95486V4.22133C18.8944 3.82437 18.5726 3.50258 18.1756 3.50258H16.7381C16.3412 3.50258 16.0194 3.82437 16.0194 4.22133V6.07986L12.7233 2.78383Z" fill="white"/>
<path d="M11.7069 5.36111L20.3319 13.9861V20.0338C20.3319 21.2247 19.3665 22.1901 18.1756 22.1901H5.23813C4.04727 22.1901 3.08188 21.2247 3.08188 20.0338V13.9861L11.7069 5.36111Z" fill="white"/>
</g>
</g>
</svg>
