<svg width="21" height="21" viewBox="0 0 21 21" fill="none" xmlns="http://www.w3.org/2000/svg">
<g id="vuesax/bold/menu-board">
<g id="menu-board">
<path id="Vector" d="M17.4584 8.93963L17.9454 17.1031C17.9619 17.326 17.8546 17.4746 17.7968 17.5406C17.7308 17.6149 17.5905 17.7305 17.3593 17.7305H15.1059L16.8888 8.93963H17.4584ZM18.3664 5.76172L18.3581 5.77823C18.3746 5.97633 18.3581 6.18269 18.3086 6.38905L12.2252 17.5571C12.0271 18.3908 11.2842 18.9686 10.4257 18.9686H17.3593C18.4242 18.9686 19.2661 18.0689 19.1835 17.0041L18.3664 5.76172Z" fill="white"/>
<path id="Vector_2" d="M9.65807 2.65783C9.74062 2.32765 9.53426 1.98923 9.20409 1.90668C8.87391 1.8324 8.53549 2.0305 8.45295 2.36067L8.04023 4.06931H9.31139L9.65807 2.65783Z" fill="white"/>
<path id="Vector_3" d="M15.1059 2.63312C15.1802 2.29469 14.9656 1.97278 14.6272 1.89849C14.297 1.8242 13.9668 2.03881 13.8925 2.37724L13.5211 4.08588H14.7923L15.1059 2.63312Z" fill="white"/>
<path id="Vector_4" d="M18.2178 5.20838C17.9454 4.54804 17.3016 4.07754 16.5092 4.07754H14.7923L14.33 6.21541C14.264 6.50431 14.0081 6.70241 13.7274 6.70241C13.6862 6.70241 13.6367 6.70241 13.5954 6.6859C13.2652 6.61162 13.0506 6.28144 13.1166 5.95127L13.5211 4.06929H9.3114L8.79137 6.21541C8.72534 6.49606 8.46946 6.6859 8.18881 6.6859C8.13928 6.6859 8.08976 6.67765 8.04023 6.6694C7.71006 6.58685 7.5037 6.25668 7.58624 5.91825L8.03198 4.06104H6.35635C5.54743 4.06104 4.82931 4.58931 4.58993 5.36522L1.11487 16.5498C0.751679 17.7467 1.63489 18.9683 2.88129 18.9683H13.7274C14.5859 18.9683 15.3288 18.3905 15.5269 17.5568L18.3086 6.38875C18.3581 6.18239 18.3746 5.97603 18.3581 5.77793C18.3416 5.57983 18.3003 5.38172 18.2178 5.20838ZM12.3407 14.6348H5.73728C5.39885 14.6348 5.11821 14.3542 5.11821 14.0157C5.11821 13.6773 5.39885 13.3967 5.73728 13.3967H12.3407C12.6792 13.3967 12.9598 13.6773 12.9598 14.0157C12.9598 14.3542 12.6792 14.6348 12.3407 14.6348ZM13.1662 11.3331H6.56271C6.22428 11.3331 5.94364 11.0524 5.94364 10.714C5.94364 10.3756 6.22428 10.0949 6.56271 10.0949H13.1662C13.5046 10.0949 13.7852 10.3756 13.7852 10.714C13.7852 11.0524 13.5046 11.3331 13.1662 11.3331Z" fill="white"/>
</g>
</g>
</svg>
