<svg width="37" height="37" viewBox="0 0 37 37" fill="none" xmlns="http://www.w3.org/2000/svg">
<g id="vuesax/bold/book">
<path id="Vector" d="M33.2222 7.97353V25.4783C33.2222 26.9063 32.0591 28.2166 30.6311 28.3933L30.1747 28.4521C27.7602 28.776 24.3594 29.7771 21.6211 30.9255C20.6641 31.323 19.6041 30.6016 19.6041 29.5563V9.0777C19.6041 8.53298 19.9133 8.03242 20.3991 7.76742C23.0933 6.30992 27.1713 5.01436 29.9391 4.77881H30.0275C31.7941 4.77881 33.2222 6.20686 33.2222 7.97353Z" fill="#0C1E33"/>
<path id="Vector_2" d="M16.6008 7.76742C13.9066 6.30992 9.82856 5.01436 7.06078 4.77881H6.95772C5.19106 4.77881 3.763 6.20686 3.763 7.97353V25.4783C3.763 26.9063 4.92606 28.2166 6.35411 28.3933L6.8105 28.4521C9.22495 28.776 12.6258 29.7771 15.3641 30.9255C16.3211 31.323 17.3811 30.6016 17.3811 29.5563V9.0777C17.3811 8.51825 17.0866 8.03242 16.6008 7.76742ZM8.19439 12.2283H11.5069C12.1105 12.2283 12.6111 12.7288 12.6111 13.3324C12.6111 13.9508 12.1105 14.4366 11.5069 14.4366H8.19439C7.59078 14.4366 7.09022 13.9508 7.09022 13.3324C7.09022 12.7288 7.59078 12.2283 8.19439 12.2283ZM12.6111 18.8533H8.19439C7.59078 18.8533 7.09022 18.3674 7.09022 17.7491C7.09022 17.1455 7.59078 16.6449 8.19439 16.6449H12.6111C13.2147 16.6449 13.7152 17.1455 13.7152 17.7491C13.7152 18.3674 13.2147 18.8533 12.6111 18.8533Z" fill="#0C1E33"/>
</g>
</svg>
