<svg width="18" height="18" viewBox="0 0 18 18" fill="none" xmlns="http://www.w3.org/2000/svg">
<g id="vuesax/bold/calendar-2">
<g id="calendar-2">
<path id="Vector" d="M12.6994 3.26829V2.14633C12.6994 1.85146 12.4549 1.60693 12.16 1.60693C11.8652 1.60693 11.6206 1.85146 11.6206 2.14633V3.22514H6.94583V2.14633C6.94583 1.85146 6.7013 1.60693 6.40643 1.60693C6.11155 1.60693 5.86702 1.85146 5.86702 2.14633V3.26829C3.92518 3.44809 2.98303 4.606 2.83919 6.32489C2.8248 6.53346 2.99741 6.70607 3.19879 6.70607H15.3677C15.5762 6.70607 15.7488 6.52627 15.7273 6.32489C15.5834 4.606 14.6413 3.44809 12.6994 3.26829Z" fill="#0C1E33"/>
<path id="Vector_2" d="M15.0368 7.78516H3.52963C3.13407 7.78516 2.81042 8.1088 2.81042 8.50436V12.9346C2.81042 15.0922 3.88923 16.5306 6.40643 16.5306H12.16C14.6772 16.5306 15.756 15.0922 15.756 12.9346V8.50436C15.756 8.1088 15.4324 7.78516 15.0368 7.78516ZM7.27666 13.8049C7.20474 13.8696 7.12563 13.9199 7.03933 13.9559C6.95302 13.9919 6.85953 14.0134 6.76603 14.0134C6.67253 14.0134 6.57904 13.9919 6.49273 13.9559C6.40643 13.9199 6.32732 13.8696 6.2554 13.8049C6.12594 13.6682 6.04683 13.4812 6.04683 13.2942C6.04683 13.1072 6.12594 12.9203 6.2554 12.7836C6.32732 12.7189 6.40643 12.6685 6.49273 12.6326C6.66534 12.5607 6.86672 12.5607 7.03933 12.6326C7.12563 12.6685 7.20474 12.7189 7.27666 12.7836C7.40612 12.9203 7.48523 13.1072 7.48523 13.2942C7.48523 13.4812 7.40612 13.6682 7.27666 13.8049ZM7.4277 11.0503C7.39174 11.1366 7.34139 11.2157 7.27666 11.2877C7.20474 11.3524 7.12563 11.4027 7.03933 11.4387C6.95302 11.4747 6.85953 11.4962 6.76603 11.4962C6.67253 11.4962 6.57904 11.4747 6.49273 11.4387C6.40643 11.4027 6.32732 11.3524 6.2554 11.2877C6.19067 11.2157 6.14033 11.1366 6.10437 11.0503C6.06841 10.964 6.04683 10.8705 6.04683 10.777C6.04683 10.6835 6.06841 10.59 6.10437 10.5037C6.14033 10.4174 6.19067 10.3383 6.2554 10.2664C6.32732 10.2017 6.40643 10.1513 6.49273 10.1154C6.66534 10.0434 6.86672 10.0434 7.03933 10.1154C7.12563 10.1513 7.20474 10.2017 7.27666 10.2664C7.34139 10.3383 7.39174 10.4174 7.4277 10.5037C7.46366 10.59 7.48523 10.6835 7.48523 10.777C7.48523 10.8705 7.46366 10.964 7.4277 11.0503ZM9.79387 11.2877C9.72195 11.3524 9.64284 11.4027 9.55653 11.4387C9.47023 11.4747 9.37673 11.4962 9.28324 11.4962C9.18974 11.4962 9.09624 11.4747 9.00994 11.4387C8.92363 11.4027 8.84452 11.3524 8.7726 11.2877C8.64315 11.151 8.56403 10.964 8.56403 10.777C8.56403 10.59 8.64315 10.403 8.7726 10.2664C8.84452 10.2017 8.92363 10.1513 9.00994 10.1154C9.18255 10.0363 9.38392 10.0363 9.55653 10.1154C9.64284 10.1513 9.72195 10.2017 9.79387 10.2664C9.92332 10.403 10.0024 10.59 10.0024 10.777C10.0024 10.964 9.92332 11.151 9.79387 11.2877Z" fill="#0C1E33"/>
</g>
</g>
</svg>
