<svg width="18" height="19" viewBox="0 0 18 19" fill="none" xmlns="http://www.w3.org/2000/svg">
<g id="vuesax/bold/clock">
<g id="clock">
<path id="Vector" d="M9.28326 2.27051C5.32046 2.27051 2.09125 5.49972 2.09125 9.46252C2.09125 13.4253 5.32046 16.6545 9.28326 16.6545C13.2461 16.6545 16.4753 13.4253 16.4753 9.46252C16.4753 5.49972 13.2461 2.27051 9.28326 2.27051ZM12.4118 12.0301C12.3111 12.2027 12.1313 12.2962 11.9443 12.2962C11.8508 12.2962 11.7573 12.2746 11.671 12.2171L9.44148 10.8865C8.8877 10.5557 8.47775 9.82931 8.47775 9.18922V6.2405C8.47775 5.94563 8.72228 5.7011 9.01715 5.7011C9.31203 5.7011 9.55655 5.94563 9.55655 6.2405V9.18922C9.55655 9.44813 9.77232 9.82931 9.99527 9.95877L12.2248 11.2893C12.4837 11.4403 12.57 11.7712 12.4118 12.0301Z" fill="#0C1E33"/>
</g>
</g>
</svg>
