<svg width="18" height="18" viewBox="0 0 18 18" fill="none" xmlns="http://www.w3.org/2000/svg">
<g id="vuesax/bold/frame">
<g id="frame">
<path id="Vector" d="M9.28324 2.02222C7.39893 2.02222 5.86703 3.55412 5.86703 5.43842C5.86703 7.28677 7.31263 8.78271 9.19694 8.84744C9.25447 8.84024 9.31201 8.84024 9.35516 8.84744C9.36955 8.84744 9.37674 8.84744 9.39112 8.84744C9.39831 8.84744 9.39831 8.84744 9.40551 8.84744C11.2467 8.78271 12.6923 7.28677 12.6994 5.43842C12.6994 3.55412 11.1675 2.02222 9.28324 2.02222Z" fill="#0C1E33"/>
<path id="Vector_2" d="M12.9368 10.7604C10.9302 9.42265 7.65784 9.42265 5.63689 10.7604C4.7235 11.3717 4.22006 12.1988 4.22006 13.0834C4.22006 13.968 4.7235 14.7879 5.6297 15.392C6.63658 16.0681 7.95991 16.4061 9.28324 16.4061C10.6066 16.4061 11.9299 16.0681 12.9368 15.392C13.843 14.7807 14.3464 13.9608 14.3464 13.069C14.3392 12.1844 13.843 11.3645 12.9368 10.7604Z" fill="#0C1E33"/>
</g>
</g>
</svg>
