<svg width="24" height="24" viewBox="0 0 24 24" fill="none" xmlns="http://www.w3.org/2000/svg">
<g id="house-fill">
<g id="Union">
<path d="M12.7234 2.78529C12.162 2.22391 11.2518 2.22391 10.6904 2.78529L1.13616 12.3396C0.855472 12.6202 0.855472 13.0753 1.13616 13.356C1.41685 13.6367 1.87194 13.6367 2.15263 13.356L11.7069 3.80176L21.2612 13.356C21.5419 13.6367 21.9969 13.6367 22.2776 13.356C22.5583 13.0753 22.5583 12.6202 22.2776 12.3396L18.8944 8.95633V4.22279C18.8944 3.82584 18.5726 3.50404 18.1756 3.50404H16.7381C16.3412 3.50404 16.0194 3.82584 16.0194 4.22279V6.08133L12.7234 2.78529Z" fill="white"/>
<path d="M11.7069 5.36258L20.3319 13.9876V20.0353C20.3319 21.2262 19.3665 22.1915 18.1756 22.1915H5.23814C4.04728 22.1915 3.08189 21.2262 3.08189 20.0353V13.9876L11.7069 5.36258Z" fill="white"/>
</g>
</g>
</svg>
