<svg width="18" height="18" viewBox="0 0 18 18" fill="none" xmlns="http://www.w3.org/2000/svg">
<g id="vuesax/bold/location">
<path id="Vector" d="M15.4828 6.40312C14.7276 3.08041 11.8292 1.58447 9.28325 1.58447C9.28325 1.58447 9.28325 1.58447 9.27606 1.58447C6.73728 1.58447 3.8317 3.07322 3.07654 6.39593C2.23508 10.107 4.50775 13.2499 6.56467 15.2277C7.32702 15.9613 8.30514 16.3281 9.28325 16.3281C10.2614 16.3281 11.2395 15.9613 11.9946 15.2277C14.0516 13.2499 16.3242 10.1142 15.4828 6.40312ZM9.28325 10.0063C8.03184 10.0063 7.01777 8.99225 7.01777 7.74084C7.01777 6.48943 8.03184 5.47535 9.28325 5.47535C10.5347 5.47535 11.5487 6.48943 11.5487 7.74084C11.5487 8.99225 10.5347 10.0063 9.28325 10.0063Z" fill="#0C1E33"/>
</g>
</svg>
