<svg width="21" height="21" viewBox="0 0 21 21" fill="none" xmlns="http://www.w3.org/2000/svg">
<g id="vuesax/bold/menu-board">
<g id="menu-board">
<path id="Vector" d="M17.4584 8.93963L17.9454 17.1031C17.9619 17.326 17.8546 17.4746 17.7968 17.5406C17.7308 17.6149 17.5905 17.7305 17.3593 17.7305H15.1059L16.8888 8.93963H17.4584ZM18.3664 5.76172L18.3581 5.77823C18.3746 5.97633 18.3581 6.18269 18.3086 6.38905L12.2252 17.5571C12.0271 18.3908 11.2842 18.9686 10.4257 18.9686H17.3593C18.4242 18.9686 19.2661 18.0689 19.1835 17.0041L18.3664 5.76172Z" fill="white"/>
<path id="Vector_2" d="M9.65807 2.65807C9.74062 2.3279 9.53426 1.98947 9.20409 1.90693C8.87391 1.83264 8.53549 2.03074 8.45295 2.36092L8.04023 4.06956H9.31139L9.65807 2.65807Z" fill="white"/>
<path id="Vector_3" d="M15.1059 2.63337C15.1802 2.29494 14.9656 1.97302 14.6272 1.89873C14.297 1.82444 13.9668 2.03906 13.8925 2.37748L13.5211 4.08612H14.7923L15.1059 2.63337Z" fill="white"/>
<path id="Vector_4" d="M18.2178 5.20863C17.9454 4.54828 17.3016 4.07779 16.5092 4.07779H14.7923L14.33 6.21565C14.264 6.50455 14.0081 6.70266 13.7274 6.70266C13.6862 6.70266 13.6367 6.70266 13.5954 6.68615C13.2652 6.61186 13.0506 6.28169 13.1166 5.95152L13.5211 4.06953H9.3114L8.79137 6.21565C8.72534 6.4963 8.46946 6.68615 8.18881 6.68615C8.13928 6.68615 8.08976 6.67789 8.04023 6.66964C7.71006 6.5871 7.5037 6.25692 7.58624 5.9185L8.03198 4.06128H6.35635C5.54743 4.06128 4.82931 4.58955 4.58993 5.36546L1.11487 16.55C0.751679 17.7469 1.63489 18.9686 2.88129 18.9686H13.7274C14.5859 18.9686 15.3288 18.3908 15.5269 17.5571L18.3086 6.38899C18.3581 6.18264 18.3746 5.97628 18.3581 5.77818C18.3416 5.58007 18.3003 5.38197 18.2178 5.20863ZM12.3407 14.635H5.73728C5.39885 14.635 5.11821 14.3544 5.11821 14.016C5.11821 13.6775 5.39885 13.3969 5.73728 13.3969H12.3407C12.6792 13.3969 12.9598 13.6775 12.9598 14.016C12.9598 14.3544 12.6792 14.635 12.3407 14.635ZM13.1662 11.3333H6.56271C6.22428 11.3333 5.94364 11.0527 5.94364 10.7143C5.94364 10.3758 6.22428 10.0952 6.56271 10.0952H13.1662C13.5046 10.0952 13.7852 10.3758 13.7852 10.7143C13.7852 11.0527 13.5046 11.3333 13.1662 11.3333Z" fill="white"/>
</g>
</g>
</svg>
