<svg width="20" height="21" viewBox="0 0 20 21" fill="none" xmlns="http://www.w3.org/2000/svg">
<g id="vuesax/bold/search-normal">
<g id="search-normal">
<g id="Group 1">
<path id="Vector" d="M9.68568 16.713C13.1357 16.713 15.9325 13.9163 15.9325 10.4663C15.9325 7.01626 13.1357 4.21948 9.68568 4.21948C6.23568 4.21948 3.4389 7.01626 3.4389 10.4663C3.4389 13.9163 6.23568 16.713 9.68568 16.713Z" fill="#495D72"/>
<path id="Vector_2" d="M16.1297 17.3706C16.0113 17.3706 15.893 17.3246 15.8075 17.2391L14.5844 16.0161C14.4069 15.8385 14.4069 15.5492 14.5844 15.3651C14.762 15.1875 15.0513 15.1875 15.2354 15.3651L16.4585 16.5881C16.636 16.7657 16.636 17.055 16.4585 17.2391C16.3664 17.3246 16.2481 17.3706 16.1297 17.3706Z" fill="#495D72"/>
</g>
</g>
</g>
</svg>
