<svg width="21" height="21" viewBox="0 0 21 21" fill="none" xmlns="http://www.w3.org/2000/svg">
<g id="vuesax/bold/archive-book">
<g id="archive-book">
<path id="Vector" d="M12.6341 2.51623V7.38627C12.6341 7.74946 12.2049 7.93106 11.9408 7.69168L10.4963 6.36274C10.3394 6.21416 10.0918 6.21416 9.93498 6.36274L8.49048 7.68343C8.22634 7.93106 7.79712 7.74121 7.79712 7.38627V2.51623C7.79712 2.28511 7.97871 2.10352 8.20983 2.10352H12.2214C12.4525 2.10352 12.6341 2.28511 12.6341 2.51623Z" fill="white"/>
<path id="Vector_2" d="M14.3263 2.1529C14.0869 2.11988 13.8723 2.32624 13.8723 2.56562V7.53471C13.8723 8.16204 13.5008 8.73158 12.923 8.98747C12.3452 9.2351 11.6766 9.12779 11.2144 8.69857L10.4963 8.03822C10.3394 7.88964 10.1001 7.88964 9.93498 8.03822L9.21686 8.69857C8.9197 8.97921 8.53175 9.11954 8.1438 9.11954C7.92919 9.11954 7.71458 9.07826 7.50822 8.98747C6.93042 8.73158 6.55897 8.16204 6.55897 7.53471V2.56562C6.55897 2.32624 6.34436 2.11988 6.10499 2.1529C3.79378 2.4418 2.78675 4.00187 2.78675 6.23053V14.4848C2.78675 16.9611 4.0249 18.612 6.91391 18.612H13.5174C16.4064 18.612 17.6445 16.9611 17.6445 14.4848V6.23053C17.6445 4.00187 16.6375 2.4418 14.3263 2.1529ZM14.7555 15.9293H7.73934C7.40091 15.9293 7.12027 15.6487 7.12027 15.3103C7.12027 14.9718 7.40091 14.6912 7.73934 14.6912H14.7555C15.0939 14.6912 15.3746 14.9718 15.3746 15.3103C15.3746 15.6487 15.0939 15.9293 14.7555 15.9293ZM14.7555 12.6276H11.2474C10.909 12.6276 10.6283 12.347 10.6283 12.0085C10.6283 11.6701 10.909 11.3895 11.2474 11.3895H14.7555C15.0939 11.3895 15.3746 11.6701 15.3746 12.0085C15.3746 12.347 15.0939 12.6276 14.7555 12.6276Z" fill="white"/>
</g>
</g>
</svg>
