<svg width="21" height="21" viewBox="0 0 21 21" fill="none" xmlns="http://www.w3.org/2000/svg">
<g id="vuesax/bold/book">
<path id="Vector" d="M18.5045 4.81267V14.627C18.5045 15.4277 17.8524 16.1623 17.0517 16.2614L16.7958 16.2944C15.4421 16.476 13.5354 17.0373 12.0001 17.6811C11.4635 17.904 10.8692 17.4995 10.8692 16.9135V5.43174C10.8692 5.12633 11.0426 4.84569 11.315 4.69711C12.8255 3.87993 15.1119 3.15355 16.6638 3.02148H16.7133C17.7038 3.02148 18.5045 3.82215 18.5045 4.81267Z" fill="white"/>
<path id="Vector_2" d="M9.18535 4.69711C7.67481 3.87993 5.38837 3.15355 3.83656 3.02148H3.77878C2.78826 3.02148 1.98759 3.82215 1.98759 4.81267V14.627C1.98759 15.4277 2.63968 16.1623 3.44035 16.2614L3.69624 16.2944C5.04994 16.476 6.95669 17.0373 8.49199 17.6811C9.02852 17.904 9.62283 17.4995 9.62283 16.9135V5.43174C9.62283 5.11808 9.45774 4.84569 9.18535 4.69711ZM4.47214 7.19816H6.32936C6.66779 7.19816 6.94843 7.47881 6.94843 7.81724C6.94843 8.16392 6.66779 8.43631 6.32936 8.43631H4.47214C4.13371 8.43631 3.85307 8.16392 3.85307 7.81724C3.85307 7.47881 4.13371 7.19816 4.47214 7.19816ZM6.94843 10.9126H4.47214C4.13371 10.9126 3.85307 10.6402 3.85307 10.2935C3.85307 9.9551 4.13371 9.67446 4.47214 9.67446H6.94843C7.28686 9.67446 7.56751 9.9551 7.56751 10.2935C7.56751 10.6402 7.28686 10.9126 6.94843 10.9126Z" fill="white"/>
</g>
</svg>
