<svg width="21" height="21" viewBox="0 0 21 21" fill="none" xmlns="http://www.w3.org/2000/svg">
<g id="vuesax/bold/calendar-tick">
<g id="calendar-tick">
<path id="Vector" d="M14.1364 3.76417V2.47649C14.1364 2.13807 13.8558 1.85742 13.5174 1.85742C13.1789 1.85742 12.8983 2.13807 12.8983 2.47649V3.71464H7.53298V2.47649C7.53298 2.13807 7.25234 1.85742 6.91391 1.85742C6.57548 1.85742 6.29484 2.13807 6.29484 2.47649V3.76417C4.06617 3.97052 2.98486 5.29947 2.81977 7.27225C2.80326 7.51162 3.00137 7.70973 3.23249 7.70973H17.1988C17.4381 7.70973 17.6363 7.50337 17.6115 7.27225C17.4464 5.29947 16.3651 3.97052 14.1364 3.76417Z" fill="white"/>
<path id="Vector_2" d="M15.9936 13.207C14.1694 13.207 12.6919 14.6846 12.6919 16.5088C12.6919 17.1278 12.8653 17.7139 13.1707 18.2091C13.7402 19.1666 14.7885 19.8105 15.9936 19.8105C17.1988 19.8105 18.2471 19.1666 18.8166 18.2091C19.122 17.7139 19.2954 17.1278 19.2954 16.5088C19.2954 14.6846 17.8178 13.207 15.9936 13.207ZM17.7023 16.1538L15.9441 17.7799C15.8286 17.8872 15.6717 17.945 15.5232 17.945C15.3663 17.945 15.2095 17.8872 15.0857 17.7634L14.2685 16.9462C14.0291 16.7069 14.0291 16.3107 14.2685 16.0713C14.5079 15.8319 14.9041 15.8319 15.1435 16.0713L15.5397 16.4675L16.8603 15.2458C17.108 15.0147 17.5042 15.0312 17.7353 15.2789C17.9664 15.5265 17.9499 15.9144 17.7023 16.1538Z" fill="white"/>
<path id="Vector_3" d="M16.8191 8.94775H3.61219C3.1582 8.94775 2.78675 9.3192 2.78675 9.77318V14.8578C2.78675 17.3341 4.0249 18.985 6.91391 18.985H10.9833C11.5528 18.985 11.949 18.432 11.7674 17.8954C11.6024 17.4167 11.462 16.8884 11.462 16.5087C11.462 14.0076 13.5008 11.9688 16.0019 11.9688C16.2413 11.9688 16.4807 11.9853 16.7118 12.0266C17.207 12.1009 17.6528 11.7129 17.6528 11.2177V9.78144C17.6445 9.3192 17.2731 8.94775 16.8191 8.94775ZM7.91268 15.8566C7.75585 16.0052 7.54124 16.096 7.32662 16.096C7.11201 16.096 6.8974 16.0052 6.74057 15.8566C6.59199 15.6998 6.50119 15.4852 6.50119 15.2706C6.50119 15.0559 6.59199 14.8413 6.74057 14.6845C6.82311 14.6102 6.90565 14.5524 7.01296 14.5112C7.31837 14.3791 7.68156 14.4534 7.91268 14.6845C8.06126 14.8413 8.15205 15.0559 8.15205 15.2706C8.15205 15.4852 8.06126 15.6998 7.91268 15.8566ZM7.91268 12.9676C7.87141 13.0006 7.83014 13.0336 7.78886 13.0667C7.73934 13.0997 7.68981 13.1244 7.64029 13.1409C7.59076 13.1657 7.54124 13.1822 7.49171 13.1905C7.43393 13.1987 7.37615 13.207 7.32662 13.207C7.11201 13.207 6.8974 13.1162 6.74057 12.9676C6.59199 12.8108 6.50119 12.5962 6.50119 12.3815C6.50119 12.1669 6.59199 11.9523 6.74057 11.7955C6.93042 11.6056 7.21932 11.5148 7.49171 11.5726C7.54124 11.5809 7.59076 11.5974 7.64029 11.6221C7.68981 11.6387 7.73934 11.6634 7.78886 11.6964C7.83014 11.7295 7.87141 11.7625 7.91268 11.7955C8.06126 11.9523 8.15205 12.1669 8.15205 12.3815C8.15205 12.5962 8.06126 12.8108 7.91268 12.9676ZM10.8017 12.9676C10.6449 13.1162 10.4302 13.207 10.2156 13.207C10.001 13.207 9.78641 13.1162 9.62958 12.9676C9.481 12.8108 9.3902 12.5962 9.3902 12.3815C9.3902 12.1669 9.481 11.9523 9.62958 11.7955C9.94324 11.4901 10.4963 11.4901 10.8017 11.7955C10.9503 11.9523 11.0411 12.1669 11.0411 12.3815C11.0411 12.5962 10.9503 12.8108 10.8017 12.9676Z" fill="white"/>
</g>
</g>
</svg>
