<svg width="248" height="248" viewBox="0 0 248 248" fill="none" xmlns="http://www.w3.org/2000/svg">
<g id="circular-determinate progress indicator">
<path id="Track" d="M124 10.3335L133.907 10.766L143.738 12.0603L153.419 14.2066L162.876 17.1884L172.038 20.9832L180.833 25.5619L189.197 30.8899L197.064 36.9264L204.374 43.6257L211.074 50.9366L217.11 58.8036L222.438 67.1668L227.017 75.9626L230.812 85.1239L233.794 94.5811L235.94 104.262L237.234 114.093L237.667 124L237.234 133.907L235.94 143.738L233.794 153.419L230.812 162.876L227.017 172.038L222.438 180.834L217.11 189.197L211.074 197.064L204.374 204.375L197.064 211.074L189.197 217.11L180.833 222.438L172.038 227.017L162.876 230.812L153.419 233.794L143.738 235.94L133.907 237.234L124 237.667L114.093 237.234L104.262 235.94L94.5809 233.794L85.1237 230.812L75.9624 227.017L67.1666 222.438L58.8035 217.11L50.9365 211.074L43.6255 204.375L36.9263 197.064L30.8897 189.197L25.5618 180.834L20.983 172.038L17.1883 162.876L14.2064 153.419L12.0602 143.738L10.7658 133.907L10.3333 124L10.7658 114.093L12.0602 104.262L14.2064 94.5811L17.1883 85.1239L20.983 75.9626L25.5618 67.1668L30.8897 58.8036L36.9263 50.9366L43.6255 43.6257L50.9365 36.9264L58.8035 30.8899L67.1666 25.5619L75.9624 20.9832L85.1237 17.1884L94.5809 14.2066L104.262 12.0603L114.093 10.766L124 10.3335Z" stroke="white" stroke-width="4"/>
</g>
</svg>
