<svg width="248" height="248" viewBox="0 0 248 248" fill="none" xmlns="http://www.w3.org/2000/svg">
<g id="circular-indeterminate progress indicator">
<path id="Active indicator" d="M237.667 124L237.234 114.093L235.94 104.262L233.794 94.5811L230.812 85.1239L227.017 75.9626L222.438 67.1668L217.11 58.8036L211.074 50.9366L204.374 43.6257L197.064 36.9264L189.197 30.8899L180.833 25.5619L172.038 20.9832L162.876 17.1884L153.419 14.2066L143.738 12.0603L133.907 10.766L124 10.3335L114.093 10.766L104.262 12.0603L94.5809 14.2066L85.1237 17.1884L75.9624 20.9832L67.1666 25.5619L58.8035 30.8899L50.9365 36.9264L43.6255 43.6257L36.9263 50.9366L30.8897 58.8036L25.5618 67.1668L20.983 75.9626L17.1883 85.1239L14.2064 94.5811L12.0602 104.262L10.7659 114.093L10.3333 124L10.7659 133.907L12.0602 143.738L14.2064 153.419L17.1883 162.876L20.983 172.038" stroke="#5E7AA3" stroke-width="4" stroke-linecap="round"/>
</g>
</svg>
