<svg width="24" height="24" viewBox="0 0 24 24" fill="none" xmlns="http://www.w3.org/2000/svg">
<g id="house-fill">
<g id="Union">
<path d="M12.896 2.78383C12.3346 2.22245 11.4244 2.22245 10.863 2.78383L1.30878 12.3381C1.02809 12.6188 1.02809 13.0739 1.30878 13.3546C1.58947 13.6352 2.04456 13.6352 2.32525 13.3546L11.8795 3.80029L21.4338 13.3546C21.7145 13.6352 22.1696 13.6352 22.4502 13.3546C22.7309 13.0739 22.7309 12.6188 22.4502 12.3381L19.067 8.95486V4.22133C19.067 3.82437 18.7452 3.50258 18.3483 3.50258H16.9108C16.5138 3.50258 16.192 3.82437 16.192 4.22133V6.07986L12.896 2.78383Z" fill="white"/>
<path d="M11.8795 5.36111L20.5045 13.9861V20.0338C20.5045 21.2247 19.5391 22.1901 18.3483 22.1901H5.41076C4.2199 22.1901 3.25451 21.2247 3.25451 20.0338V13.9861L11.8795 5.36111Z" fill="white"/>
</g>
</g>
</svg>
