<svg width="21" height="21" viewBox="0 0 21 21" fill="none" xmlns="http://www.w3.org/2000/svg">
<g id="vuesax/bold/menu-board">
<g id="menu-board">
<path id="Vector" d="M17.562 8.93963L18.049 17.1031C18.0655 17.326 17.9582 17.4746 17.9004 17.5406C17.8344 17.6149 17.694 17.7305 17.4629 17.7305H15.2095L16.9924 8.93963H17.562ZM18.4699 5.76172L18.4617 5.77823C18.4782 5.97633 18.4617 6.18269 18.4122 6.38905L12.3287 17.5571C12.1306 18.3908 11.3877 18.9686 10.5293 18.9686H17.4629C18.5277 18.9686 19.3697 18.0689 19.2871 17.0041L18.4699 5.76172Z" fill="white"/>
<path id="Vector_2" d="M9.76164 2.65783C9.84419 2.32765 9.63783 1.98923 9.30766 1.90668C8.97748 1.8324 8.63906 2.0305 8.55651 2.36067L8.1438 4.06931H9.41496L9.76164 2.65783Z" fill="white"/>
<path id="Vector_3" d="M15.2095 2.63312C15.2838 2.29469 15.0692 1.97278 14.7307 1.89849C14.4006 1.8242 14.0704 2.03881 13.9961 2.37724L13.6247 4.08588H14.8958L15.2095 2.63312Z" fill="white"/>
<path id="Vector_4" d="M18.3214 5.20838C18.049 4.54804 17.4051 4.07754 16.6127 4.07754H14.8958L14.4336 6.21541C14.3675 6.50431 14.1117 6.70241 13.831 6.70241C13.7897 6.70241 13.7402 6.70241 13.6989 6.6859C13.3688 6.61162 13.1542 6.28144 13.2202 5.95127L13.6247 4.06929H9.41496L8.89494 6.21541C8.82891 6.49606 8.57303 6.6859 8.29238 6.6859C8.24285 6.6859 8.19333 6.67765 8.1438 6.6694C7.81363 6.58685 7.60727 6.25668 7.68981 5.91825L8.13555 4.06104H6.45992C5.651 4.06104 4.93288 4.58931 4.6935 5.36522L1.21844 16.5498C0.855248 17.7467 1.73846 18.9683 2.98486 18.9683H13.831C14.6895 18.9683 15.4324 18.3905 15.6305 17.5568L18.4122 6.38875C18.4617 6.18239 18.4782 5.97603 18.4617 5.77793C18.4452 5.57983 18.4039 5.38172 18.3214 5.20838ZM12.4443 14.6348H5.84085C5.50242 14.6348 5.22178 14.3542 5.22178 14.0157C5.22178 13.6773 5.50242 13.3967 5.84085 13.3967H12.4443C12.7827 13.3967 13.0634 13.6773 13.0634 14.0157C13.0634 14.3542 12.7827 14.6348 12.4443 14.6348ZM13.2697 11.3331H6.66628C6.32785 11.3331 6.04721 11.0524 6.04721 10.714C6.04721 10.3756 6.32785 10.0949 6.66628 10.0949H13.2697C13.6082 10.0949 13.8888 10.3756 13.8888 10.714C13.8888 11.0524 13.6082 11.3331 13.2697 11.3331Z" fill="white"/>
</g>
</g>
</svg>
