<svg width="27" height="27" viewBox="0 0 27 27" fill="none" xmlns="http://www.w3.org/2000/svg">
<g id="vuesax/bold/messages">
<g id="messages">
<path id="Vector" d="M14.7516 6.97656H7.83085C7.54969 6.97656 7.27935 6.98738 7.01982 7.01982C4.11096 7.26853 2.65112 8.9879 2.65112 12.1563V16.4817C2.65112 20.8072 4.3813 21.6615 7.83085 21.6615H8.26339C8.50129 21.6615 8.81488 21.8237 8.95546 22.0075L10.2531 23.7377C10.8262 24.5054 11.7562 24.5054 12.3293 23.7377L13.6269 22.0075C13.7891 21.7912 14.0487 21.6615 14.319 21.6615H14.7516C17.9199 21.6615 19.6393 20.2124 19.888 17.2928C19.9205 17.0332 19.9313 16.7629 19.9313 16.4817V12.1563C19.9313 8.70674 18.2011 6.97656 14.7516 6.97656ZM7.51725 15.6275C6.91169 15.6275 6.43589 15.1408 6.43589 14.5461C6.43589 13.9513 6.9225 13.4647 7.51725 13.4647C8.112 13.4647 8.59861 13.9513 8.59861 14.5461C8.59861 15.1408 8.112 15.6275 7.51725 15.6275ZM11.2912 15.6275C10.6856 15.6275 10.2098 15.1408 10.2098 14.5461C10.2098 13.9513 10.6965 13.4647 11.2912 13.4647C11.886 13.4647 12.3726 13.9513 12.3726 14.5461C12.3726 15.1408 11.8968 15.6275 11.2912 15.6275ZM15.076 15.6275C14.4704 15.6275 13.9946 15.1408 13.9946 14.5461C13.9946 13.9513 14.4812 13.4647 15.076 13.4647C15.6707 13.4647 16.1573 13.9513 16.1573 14.5461C16.1573 15.1408 15.6707 15.6275 15.076 15.6275Z" fill="#0C1E33"/>
<path id="Vector_2" d="M24.2567 7.8306V12.156C24.2567 14.3188 23.5863 15.7894 22.2454 16.6004C21.921 16.7951 21.5425 16.5356 21.5425 16.1571L21.5533 12.156C21.5533 7.8306 19.077 5.35428 14.7516 5.35428L8.16606 5.3651C7.78758 5.3651 7.52806 4.98662 7.7227 4.66221C8.53372 3.32132 10.0044 2.65088 12.1563 2.65088H19.077C22.5265 2.65088 24.2567 4.38106 24.2567 7.8306Z" fill="#0C1E33"/>
</g>
</g>
</svg>
