<svg width="21" height="21" viewBox="0 0 21 21" fill="none" xmlns="http://www.w3.org/2000/svg">
<g id="vuesax/bold/trend-up">
<g id="trend-up">
<path id="Vector" d="M13.6742 2.25635H6.75708C3.75251 2.25635 1.96132 4.04753 1.96132 7.0521V13.961C1.96132 16.9738 3.75251 18.765 6.75708 18.765H13.6659C16.6705 18.765 18.4617 16.9738 18.4617 13.9692V7.0521C18.4699 4.04753 16.6788 2.25635 13.6742 2.25635ZM14.2437 10.1227C14.2437 10.4446 13.9878 10.7005 13.6659 10.7005C13.344 10.7005 13.0881 10.4446 13.0881 10.1227V9.97412L10.843 12.2193C10.7191 12.3431 10.5541 12.4009 10.3807 12.3844C10.2074 12.3679 10.0505 12.2771 9.95975 12.1285L9.11781 10.8738L7.15328 12.8384C7.03772 12.9539 6.8974 13.0035 6.74882 13.0035C6.60024 13.0035 6.45167 12.9457 6.34436 12.8384C6.12149 12.6155 6.12149 12.2523 6.34436 12.0212L8.80414 9.56141C8.92796 9.43759 9.09304 9.37981 9.26638 9.39632C9.43973 9.41283 9.59656 9.50363 9.68735 9.65221L10.5293 10.9069L12.271 9.1652H12.1224C11.8005 9.1652 11.5446 8.90932 11.5446 8.5874C11.5446 8.26548 11.8005 8.0096 12.1224 8.0096H13.6577C13.732 8.0096 13.8063 8.02611 13.8805 8.05087C14.0209 8.10865 14.1364 8.22421 14.1942 8.36453C14.2272 8.43882 14.2355 8.51311 14.2355 8.5874V10.1227H14.2437Z" fill="white"/>
</g>
</g>
</svg>
