<svg width="20" height="21" viewBox="0 0 20 21" fill="none" xmlns="http://www.w3.org/2000/svg">
<g id="vuesax/bold/archive-book">
<g id="archive-book">
<path id="Vector" d="M12.4227 2.48666V7.33613C12.4227 7.69778 11.9953 7.87861 11.7322 7.64025L10.2938 6.31692C10.1377 6.16897 9.89108 6.16897 9.73491 6.31692L8.29651 7.63203C8.03349 7.87861 7.60608 7.68956 7.60608 7.33613V2.48666C7.60608 2.25651 7.78691 2.07568 8.01705 2.07568H12.0117C12.2418 2.07568 12.4227 2.25651 12.4227 2.48666Z" fill="#0C1E33"/>
<path id="Vector_2" d="M14.1077 2.12457C13.8694 2.09169 13.6557 2.29717 13.6557 2.53554V7.48364C13.6557 8.10832 13.2858 8.67546 12.7104 8.93026C12.1351 9.17685 11.4693 9.06999 11.009 8.64258L10.2939 7.98503C10.1377 7.83708 9.89937 7.83708 9.73498 7.98503L9.01989 8.64258C8.72399 8.92204 8.33767 9.06177 7.95136 9.06177C7.73766 9.06177 7.52395 9.02068 7.31846 8.93026C6.7431 8.67546 6.37323 8.10832 6.37323 7.48364V2.53554C6.37323 2.29717 6.15952 2.09169 5.92116 2.12457C3.61972 2.41225 2.61694 3.96572 2.61694 6.18497V14.4044C2.61694 16.8702 3.84986 18.5141 6.72666 18.5141H13.3022C16.179 18.5141 17.4119 16.8702 17.4119 14.4044V6.18497C17.4119 3.96572 16.4092 2.41225 14.1077 2.12457ZM14.5351 15.8428H7.54861C7.21161 15.8428 6.93215 15.5634 6.93215 15.2264C6.93215 14.8894 7.21161 14.6099 7.54861 14.6099H14.5351C14.8721 14.6099 15.1516 14.8894 15.1516 15.2264C15.1516 15.5634 14.8721 15.8428 14.5351 15.8428ZM14.5351 12.555H11.0419C10.7049 12.555 10.4254 12.2756 10.4254 11.9386C10.4254 11.6016 10.7049 11.3221 11.0419 11.3221H14.5351C14.8721 11.3221 15.1516 11.6016 15.1516 11.9386C15.1516 12.2756 14.8721 12.555 14.5351 12.555Z" fill="#0C1E33"/>
</g>
</g>
</svg>
