<svg width="21" height="21" viewBox="0 0 21 21" fill="none" xmlns="http://www.w3.org/2000/svg">
<g id="vuesax/bold/book">
<path id="Vector" d="M18.3664 4.81267V14.627C18.3664 15.4277 17.7143 16.1623 16.9136 16.2614L16.6577 16.2944C15.304 16.476 13.3973 17.0373 11.862 17.6811C11.3254 17.904 10.7311 17.4995 10.7311 16.9135V5.43174C10.7311 5.12633 10.9045 4.84569 11.1769 4.69711C12.6874 3.87993 14.9739 3.15355 16.5257 3.02148H16.5752C17.5657 3.02148 18.3664 3.82215 18.3664 4.81267Z" fill="white"/>
<path id="Vector_2" d="M9.04726 4.69711C7.53672 3.87993 5.25028 3.15355 3.69847 3.02148H3.64069C2.65017 3.02148 1.8495 3.82215 1.8495 4.81267V14.627C1.8495 15.4277 2.50159 16.1623 3.30226 16.2614L3.55814 16.2944C4.91185 16.476 6.8186 17.0373 8.3539 17.6811C8.89043 17.904 9.48474 17.4995 9.48474 16.9135V5.43174C9.48474 5.11808 9.31965 4.84569 9.04726 4.69711ZM4.33405 7.19816H6.19127C6.5297 7.19816 6.81034 7.47881 6.81034 7.81724C6.81034 8.16392 6.5297 8.43631 6.19127 8.43631H4.33405C3.99562 8.43631 3.71498 8.16392 3.71498 7.81724C3.71498 7.47881 3.99562 7.19816 4.33405 7.19816ZM6.81034 10.9126H4.33405C3.99562 10.9126 3.71498 10.6402 3.71498 10.2935C3.71498 9.9551 3.99562 9.67446 4.33405 9.67446H6.81034C7.14877 9.67446 7.42942 9.9551 7.42942 10.2935C7.42942 10.6402 7.14877 10.9126 6.81034 10.9126Z" fill="white"/>
</g>
</svg>
