<svg width="21" height="21" viewBox="0 0 21 21" fill="none" xmlns="http://www.w3.org/2000/svg">
<g id="vuesax/bold/calendar-tick">
<g id="calendar-tick">
<path id="Vector" d="M14.0329 3.76417V2.47649C14.0329 2.13807 13.7522 1.85742 13.4138 1.85742C13.0754 1.85742 12.7947 2.13807 12.7947 2.47649V3.71464H7.42941V2.47649C7.42941 2.13807 7.14877 1.85742 6.81034 1.85742C6.47191 1.85742 6.19127 2.13807 6.19127 2.47649V3.76417C3.9626 3.97052 2.88129 5.29947 2.7162 7.27225C2.69969 7.51162 2.8978 7.70973 3.12892 7.70973H17.0952C17.3346 7.70973 17.5327 7.50337 17.5079 7.27225C17.3428 5.29947 16.2615 3.97052 14.0329 3.76417Z" fill="white"/>
<path id="Vector_2" d="M15.8901 13.207C14.0659 13.207 12.5884 14.6846 12.5884 16.5088C12.5884 17.1278 12.7617 17.7139 13.0671 18.2091C13.6367 19.1666 14.6849 19.8105 15.8901 19.8105C17.0952 19.8105 18.1435 19.1666 18.7131 18.2091C19.0185 17.7139 19.1918 17.1278 19.1918 16.5088C19.1918 14.6846 17.7143 13.207 15.8901 13.207ZM17.5987 16.1538L15.8406 17.7799C15.725 17.8872 15.5682 17.945 15.4196 17.945C15.2628 17.945 15.1059 17.8872 14.9821 17.7634L14.1649 16.9462C13.9256 16.7069 13.9256 16.3107 14.1649 16.0713C14.4043 15.8319 14.8005 15.8319 15.0399 16.0713L15.4361 16.4675L16.7568 15.2458C17.0044 15.0147 17.4006 15.0312 17.6317 15.2789C17.8629 15.5265 17.8463 15.9144 17.5987 16.1538Z" fill="white"/>
<path id="Vector_3" d="M16.7155 8.94775H3.50862C3.05463 8.94775 2.68319 9.3192 2.68319 9.77318V14.8578C2.68319 17.3341 3.92133 18.985 6.81034 18.985H10.8797C11.4493 18.985 11.8455 18.432 11.6639 17.8954C11.4988 17.4167 11.3585 16.8884 11.3585 16.5087C11.3585 14.0076 13.3973 11.9688 15.8983 11.9688C16.1377 11.9688 16.3771 11.9853 16.6082 12.0266C17.1035 12.1009 17.5492 11.7129 17.5492 11.2177V9.78144C17.5409 9.3192 17.1695 8.94775 16.7155 8.94775ZM7.80911 15.8566C7.65228 16.0052 7.43767 16.096 7.22305 16.096C7.00844 16.096 6.79383 16.0052 6.637 15.8566C6.48842 15.6998 6.39762 15.4852 6.39762 15.2706C6.39762 15.0559 6.48842 14.8413 6.637 14.6845C6.71954 14.6102 6.80208 14.5524 6.90939 14.5112C7.2148 14.3791 7.57799 14.4534 7.80911 14.6845C7.95769 14.8413 8.04849 15.0559 8.04849 15.2706C8.04849 15.4852 7.95769 15.6998 7.80911 15.8566ZM7.80911 12.9676C7.76784 13.0006 7.72657 13.0336 7.6853 13.0667C7.63577 13.0997 7.58624 13.1244 7.53672 13.1409C7.48719 13.1657 7.43767 13.1822 7.38814 13.1905C7.33036 13.1987 7.27258 13.207 7.22305 13.207C7.00844 13.207 6.79383 13.1162 6.637 12.9676C6.48842 12.8108 6.39762 12.5962 6.39762 12.3815C6.39762 12.1669 6.48842 11.9523 6.637 11.7955C6.82685 11.6056 7.11575 11.5148 7.38814 11.5726C7.43767 11.5809 7.48719 11.5974 7.53672 11.6221C7.58624 11.6387 7.63577 11.6634 7.6853 11.6964C7.72657 11.7295 7.76784 11.7625 7.80911 11.7955C7.95769 11.9523 8.04849 12.1669 8.04849 12.3815C8.04849 12.5962 7.95769 12.8108 7.80911 12.9676ZM10.6981 12.9676C10.5413 13.1162 10.3267 13.207 10.1121 13.207C9.89745 13.207 9.68284 13.1162 9.52601 12.9676C9.37743 12.8108 9.28663 12.5962 9.28663 12.3815C9.28663 12.1669 9.37743 11.9523 9.52601 11.7955C9.83967 11.4901 10.3927 11.4901 10.6981 11.7955C10.8467 11.9523 10.9375 12.1669 10.9375 12.3815C10.9375 12.5962 10.8467 12.8108 10.6981 12.9676Z" fill="white"/>
</g>
</g>
</svg>
