<svg width="27" height="27" viewBox="0 0 27 27" fill="none" xmlns="http://www.w3.org/2000/svg">
<g id="bold/notification">
<g id="notification">
<path id="Vector" d="M21.772 16.1571L20.6906 14.362C20.4635 13.9619 20.2581 13.205 20.2581 12.7616V10.0258C20.2581 7.48457 18.7658 5.2894 16.6139 4.26211C16.0516 3.26726 15.0135 2.65088 13.824 2.65088C12.6453 2.65088 11.5856 3.28888 11.0233 4.29455C8.9146 5.34347 7.45476 7.51701 7.45476 10.0258V12.7616C7.45476 13.205 7.2493 13.9619 7.02221 14.3512L5.93004 16.1571C5.4975 16.8816 5.40017 17.6818 5.67051 18.4171C5.93004 19.1416 6.54642 19.704 7.34662 19.9743C9.44447 20.688 11.6504 21.034 13.8564 21.034C16.0624 21.034 18.2684 20.688 20.3662 19.9851C21.1232 19.7364 21.7071 19.1633 21.9883 18.4171C22.2694 17.671 22.1937 16.8492 21.772 16.1571Z" fill="#0C1E33"/>
<path id="Vector_2" d="M16.8951 22.126C16.4409 23.3804 15.2406 24.278 13.8348 24.278C12.9806 24.278 12.1371 23.9319 11.5424 23.3155C11.1963 22.9911 10.9368 22.5586 10.7854 22.1152C10.926 22.1369 11.0666 22.1477 11.2179 22.1693C11.4667 22.2017 11.7262 22.2342 11.9857 22.2558C12.6021 22.3099 13.2293 22.3423 13.8565 22.3423C14.4728 22.3423 15.0892 22.3099 15.6948 22.2558C15.9219 22.2342 16.149 22.2234 16.3652 22.1909C16.5382 22.1693 16.7113 22.1477 16.8951 22.126Z" fill="#0C1E33"/>
</g>
</g>
</svg>
