<svg width="21" height="21" viewBox="0 0 21 21" fill="none" xmlns="http://www.w3.org/2000/svg">
<g id="vuesax/bold/trend-up">
<g id="trend-up">
<path id="Vector" d="M13.5706 2.25635H6.65351C3.64894 2.25635 1.85775 4.04753 1.85775 7.0521V13.961C1.85775 16.9738 3.64894 18.765 6.65351 18.765H13.5624C16.5669 18.765 18.3581 16.9738 18.3581 13.9692V7.0521C18.3664 4.04753 16.5752 2.25635 13.5706 2.25635ZM14.1402 10.1227C14.1402 10.4446 13.8843 10.7005 13.5624 10.7005C13.2404 10.7005 12.9846 10.4446 12.9846 10.1227V9.97412L10.7394 12.2193C10.6156 12.3431 10.4505 12.4009 10.2771 12.3844C10.1038 12.3679 9.94697 12.2771 9.85618 12.1285L9.01424 10.8738L7.04971 12.8384C6.93415 12.9539 6.79383 13.0035 6.64525 13.0035C6.49667 13.0035 6.3481 12.9457 6.24079 12.8384C6.01792 12.6155 6.01792 12.2523 6.24079 12.0212L8.70057 9.56141C8.82439 9.43759 8.98948 9.37981 9.16282 9.39632C9.33616 9.41283 9.49299 9.50363 9.58378 9.65221L10.4257 10.9069L12.1674 9.1652H12.0188C11.6969 9.1652 11.441 8.90932 11.441 8.5874C11.441 8.26548 11.6969 8.0096 12.0188 8.0096H13.5541C13.6284 8.0096 13.7027 8.02611 13.777 8.05087C13.9173 8.10865 14.0329 8.22421 14.0906 8.36453C14.1237 8.43882 14.1319 8.51311 14.1319 8.5874V10.1227H14.1402Z" fill="white"/>
</g>
</g>
</svg>
