<svg width="21" height="21" viewBox="0 0 21 21" fill="none" xmlns="http://www.w3.org/2000/svg">
<g id="vuesax/bold/archive-book">
<g id="archive-book">
<path id="Vector" d="M12.5306 2.51623V7.38627C12.5306 7.74946 12.1014 7.93106 11.8372 7.69168L10.3927 6.36274C10.2359 6.21416 9.98825 6.21416 9.83142 6.36274L8.38691 7.68343C8.12277 7.93106 7.69355 7.74121 7.69355 7.38627V2.51623C7.69355 2.28511 7.87514 2.10352 8.10627 2.10352H12.1179C12.349 2.10352 12.5306 2.28511 12.5306 2.51623Z" fill="white"/>
<path id="Vector_2" d="M14.2227 2.1529C13.9833 2.11988 13.7687 2.32624 13.7687 2.56562V7.53471C13.7687 8.16204 13.3973 8.73158 12.8195 8.98747C12.2417 9.2351 11.5731 9.12779 11.1108 8.69857L10.3927 8.03822C10.2359 7.88964 9.9965 7.88964 9.83142 8.03822L9.11329 8.69857C8.81614 8.97921 8.42818 9.11954 8.04023 9.11954C7.82562 9.11954 7.61101 9.07826 7.40465 8.98747C6.82685 8.73158 6.4554 8.16204 6.4554 7.53471V2.56562C6.4554 2.32624 6.24079 2.11988 6.00142 2.1529C3.69021 2.4418 2.68319 4.00187 2.68319 6.23053V14.4848C2.68319 16.9611 3.92133 18.612 6.81034 18.612H13.4138C16.3028 18.612 17.5409 16.9611 17.5409 14.4848V6.23053C17.5409 4.00187 16.5339 2.4418 14.2227 2.1529ZM14.6519 15.9293H7.63577C7.29734 15.9293 7.0167 15.6487 7.0167 15.3103C7.0167 14.9718 7.29734 14.6912 7.63577 14.6912H14.6519C14.9904 14.6912 15.271 14.9718 15.271 15.3103C15.271 15.6487 14.9904 15.9293 14.6519 15.9293ZM14.6519 12.6276H11.1439C10.8054 12.6276 10.5248 12.347 10.5248 12.0085C10.5248 11.6701 10.8054 11.3895 11.1439 11.3895H14.6519C14.9904 11.3895 15.271 11.6701 15.271 12.0085C15.271 12.347 14.9904 12.6276 14.6519 12.6276Z" fill="white"/>
</g>
</g>
</svg>
