<svg width="28" height="28" viewBox="0 0 28 28" fill="none" xmlns="http://www.w3.org/2000/svg">
<g id="Group">
<path id="Vector" d="M2.28945 6.86825C2.28945 6.23639 2.81028 5.72358 3.42497 5.72358H24.0475C24.6747 5.72358 25.183 6.23296 25.183 6.86825V22.8937C25.183 23.5256 24.6621 24.0384 24.0475 24.0384H3.42497C3.27516 24.0381 3.12689 24.0082 2.98866 23.9505C2.85043 23.8927 2.72496 23.8083 2.61946 23.7019C2.51396 23.5955 2.4305 23.4694 2.37386 23.3307C2.31723 23.192 2.28854 23.0435 2.28945 22.8937V6.86825ZM4.5788 8.01293V21.749H22.8936V8.01293H4.5788ZM16.0256 18.315C16.9363 18.315 17.8098 17.9532 18.4538 17.3092C19.0978 16.6652 19.4596 15.7917 19.4596 14.881C19.4596 13.9702 19.0978 13.0968 18.4538 12.4528C17.8098 11.8088 16.9363 11.447 16.0256 11.447C15.1148 11.447 14.2413 11.8088 13.5973 12.4528C12.9533 13.0968 12.5915 13.9702 12.5915 14.881C12.5915 15.7917 12.9533 16.6652 13.5973 17.3092C14.2413 17.9532 15.1148 18.315 16.0256 18.315V18.315ZM16.0256 20.6044C14.5076 20.6044 13.0519 20.0014 11.9785 18.928C10.9052 17.8547 10.3022 16.3989 10.3022 14.881C10.3022 13.3631 10.9052 11.9073 11.9785 10.8339C13.0519 9.7606 14.5076 9.15761 16.0256 9.15761C17.5435 9.15761 18.9993 9.7606 20.0726 10.8339C21.1459 11.9073 21.7489 13.3631 21.7489 14.881C21.7489 16.3989 21.1459 17.8547 20.0726 18.928C18.9993 20.0014 17.5435 20.6044 16.0256 20.6044V20.6044ZM4.5788 2.28955H11.4469V4.5789H4.5788V2.28955Z" fill="black"/>
</g>
</svg>
