<svg width="27" height="27" viewBox="0 0 27 27" fill="none" xmlns="http://www.w3.org/2000/svg">
<g id="bold/notification">
<g id="notification">
<path id="Vector" d="M21.772 16.1576L20.6906 14.3625C20.4635 13.9624 20.2581 13.2055 20.2581 12.7621V10.0263C20.2581 7.48505 18.7658 5.28989 16.6139 4.2626C16.0516 3.26774 15.0135 2.65137 13.824 2.65137C12.6453 2.65137 11.5856 3.28937 11.0233 4.29504C8.9146 5.34396 7.45476 7.51749 7.45476 10.0263V12.7621C7.45476 13.2055 7.2493 13.9624 7.02221 14.3517L5.93004 16.1576C5.4975 16.8821 5.40017 17.6823 5.67051 18.4176C5.93004 19.1421 6.54642 19.7044 7.34662 19.9748C9.44447 20.6885 11.6504 21.0345 13.8564 21.0345C16.0624 21.0345 18.2684 20.6885 20.3662 19.9856C21.1232 19.7369 21.7071 19.1638 21.9883 18.4176C22.2694 17.6715 22.1937 16.8496 21.772 16.1576Z" fill="#0C1E33"/>
<path id="Vector_2" d="M16.8951 22.1268C16.4409 23.3812 15.2406 24.2787 13.8348 24.2787C12.9806 24.2787 12.1371 23.9327 11.5424 23.3163C11.1963 22.9919 10.9368 22.5593 10.7854 22.116C10.926 22.1376 11.0666 22.1484 11.2179 22.17C11.4667 22.2025 11.7262 22.2349 11.9857 22.2565C12.6021 22.3106 13.2293 22.3431 13.8565 22.3431C14.4728 22.3431 15.0892 22.3106 15.6948 22.2565C15.9219 22.2349 16.149 22.2241 16.3652 22.1917C16.5382 22.17 16.7113 22.1484 16.8951 22.1268Z" fill="#0C1E33"/>
</g>
</g>
</svg>
