<svg width="28" height="28" viewBox="0 0 28 28" fill="none" xmlns="http://www.w3.org/2000/svg">
<g id="Group">
<path id="Vector" d="M13.7361 25.1831C7.41402 25.1831 2.28931 20.0584 2.28931 13.7363C2.28931 7.41427 7.41402 2.28955 13.7361 2.28955C20.0581 2.28955 25.1828 7.41427 25.1828 13.7363C25.1828 20.0584 20.0581 25.1831 13.7361 25.1831ZM13.7361 22.8937C16.1648 22.8937 18.494 21.9289 20.2113 20.2116C21.9287 18.4942 22.8935 16.165 22.8935 13.7363C22.8935 11.3076 21.9287 8.97839 20.2113 7.26105C18.494 5.5437 16.1648 4.5789 13.7361 4.5789C11.3074 4.5789 8.97815 5.5437 7.2608 7.26105C5.54345 8.97839 4.57866 11.3076 4.57866 13.7363C4.57866 16.165 5.54345 18.4942 7.2608 20.2116C8.97815 21.9289 11.3074 22.8937 13.7361 22.8937V22.8937ZM8.01269 13.7363H10.302C10.302 14.6471 10.6638 15.5205 11.3078 16.1645C11.9518 16.8085 12.8253 17.1703 13.7361 17.1703C14.6468 17.1703 15.5203 16.8085 16.1643 16.1645C16.8083 15.5205 17.1701 14.6471 17.1701 13.7363H19.4594C19.4594 15.2542 18.8564 16.71 17.7831 17.7834C16.7098 18.8567 15.254 19.4597 13.7361 19.4597C12.2181 19.4597 10.7624 18.8567 9.68903 17.7834C8.61568 16.71 8.01269 15.2542 8.01269 13.7363V13.7363Z" fill="black"/>
</g>
</svg>
